<svg xmlns="http://www.w3.org/2000/svg" xmlns:xlink="http://www.w3.org/1999/xlink" version="1.1" class="marks" width="1400" height="1697" viewBox="0 0 1443 1697"><rect width="1400" height="1697" fill="#f8ead8"/><g fill="none" stroke-miterlimit="10" transform="translate(122,54)"><g class="mark-group role-frame root" role="graphics-object" aria-roledescription="group mark container"><g transform="translate(0,0)"><path class="background" aria-hidden="true" d="M0,0h0v0h0Z"/><g><g class="mark-group role-row-header row_header" role="graphics-object" aria-roledescription="group mark container"><g transform="translate(-2,0)"><path class="background" aria-hidden="true" d="M0,0h0v300h0Z"/><g><g class="mark-group role-axis" role="graphics-symbol" aria-roledescription="axis" aria-label="Y-axis for a linear scale with values from $0 to $1,200,000"><g transform="translate(0.5,0.5)"><path class="background" aria-hidden="true" d="M0,0h0v0h0Z" pointer-events="none"/><g><g class="mark-rule role-axis-tick" pointer-events="none"><line transform="translate(0,300)" x2="-5" y2="0" stroke="#888" stroke-width="1" opacity="1"/><line transform="translate(0,250)" x2="-5" y2="0" stroke="#888" stroke-width="1" opacity="1"/><line transform="translate(0,200)" x2="-5" y2="0" stroke="#888" stroke-width="1" opacity="1"/><line transform="translate(0,150)" x2="-5" y2="0" stroke="#888" stroke-width="1" opacity="1"/><line transform="translate(0,100)" x2="-5" y2="0" stroke="#888" stroke-width="1" opacity="1"/><line transform="translate(0,50)" x2="-5" y2="0" stroke="#888" stroke-width="1" opacity="1"/><line transform="translate(0,0)" x2="-5" y2="0" stroke="#888" stroke-width="1" opacity="1"/></g><g class="mark-text role-axis-label" pointer-events="none"><text text-anchor="end" transform="translate(-7,304)" font-family="sans-serif" font-size="12px" fill="#000" opacity="1">$0</text><text text-anchor="end" transform="translate(-7,254)" font-family="sans-serif" font-size="12px" fill="#000" opacity="1">$200,000</text><text text-anchor="end" transform="translate(-7,204.00000000000003)" font-family="sans-serif" font-size="12px" fill="#000" opacity="1">$400,000</text><text text-anchor="end" transform="translate(-7,154)" font-family="sans-serif" font-size="12px" fill="#000" opacity="1">$600,000</text><text text-anchor="end" transform="translate(-7,104.00000000000001)" font-family="sans-serif" font-size="12px" fill="#000" opacity="1">$800,000</text><text text-anchor="end" transform="translate(-7,53.999999999999986)" font-family="sans-serif" font-size="12px" fill="#000" opacity="1">$1,000,000</text><text text-anchor="end" transform="translate(-7,4)" font-family="sans-serif" font-size="12px" fill="#000" opacity="1">$1,200,000</text></g><g class="mark-rule role-axis-domain" pointer-events="none"><line transform="translate(0,300)" x2="0" y2="-300" stroke="#888" stroke-width="1" opacity="1"/></g></g><path class="foreground" aria-hidden="true" d="" pointer-events="none" display="none"/></g></g><g class="mark-group role-title"><g transform="translate(-113.05859375000001,150)"><path class="background" aria-hidden="true" d="M0,0h0v0h0Z" pointer-events="none"/><g><g class="mark-text role-title-text" role="graphics-symbol" aria-roledescription="title" aria-label="Title text 'U Mass Amherst'" pointer-events="none"><text text-anchor="middle" transform="translate(0,0) rotate(-90) translate(0,28)" font-family="sans-serif" font-size="36px" font-weight="bold" fill="#000" opacity="1">U Mass Amherst</text></g></g><path class="foreground" aria-hidden="true" d="" pointer-events="none" display="none"/></g></g></g><path class="foreground" aria-hidden="true" d="" display="none"/></g><g transform="translate(-2,324)"><path class="background" aria-hidden="true" d="M0,0h0v300h0Z"/><g><g class="mark-group role-axis" role="graphics-symbol" aria-roledescription="axis" aria-label="Y-axis for a linear scale with values from $0 to $1,200,000"><g transform="translate(0.5,0.5)"><path class="background" aria-hidden="true" d="M0,0h0v0h0Z" pointer-events="none"/><g><g class="mark-rule role-axis-tick" pointer-events="none"><line transform="translate(0,300)" x2="-5" y2="0" stroke="#888" stroke-width="1" opacity="1"/><line transform="translate(0,250)" x2="-5" y2="0" stroke="#888" stroke-width="1" opacity="1"/><line transform="translate(0,200)" x2="-5" y2="0" stroke="#888" stroke-width="1" opacity="1"/><line transform="translate(0,150)" x2="-5" y2="0" stroke="#888" stroke-width="1" opacity="1"/><line transform="translate(0,100)" x2="-5" y2="0" stroke="#888" stroke-width="1" opacity="1"/><line transform="translate(0,50)" x2="-5" y2="0" stroke="#888" stroke-width="1" opacity="1"/><line transform="translate(0,0)" x2="-5" y2="0" stroke="#888" stroke-width="1" opacity="1"/></g><g class="mark-text role-axis-label" pointer-events="none"><text text-anchor="end" transform="translate(-7,304)" font-family="sans-serif" font-size="12px" fill="#000" opacity="1">$0</text><text text-anchor="end" transform="translate(-7,254)" font-family="sans-serif" font-size="12px" fill="#000" opacity="1">$200,000</text><text text-anchor="end" transform="translate(-7,204.00000000000003)" font-family="sans-serif" font-size="12px" fill="#000" opacity="1">$400,000</text><text text-anchor="end" transform="translate(-7,154)" font-family="sans-serif" font-size="12px" fill="#000" opacity="1">$600,000</text><text text-anchor="end" transform="translate(-7,104.00000000000001)" font-family="sans-serif" font-size="12px" fill="#000" opacity="1">$800,000</text><text text-anchor="end" transform="translate(-7,53.999999999999986)" font-family="sans-serif" font-size="12px" fill="#000" opacity="1">$1,000,000</text><text text-anchor="end" transform="translate(-7,4)" font-family="sans-serif" font-size="12px" fill="#000" opacity="1">$1,200,000</text></g><g class="mark-rule role-axis-domain" pointer-events="none"><line transform="translate(0,300)" x2="0" y2="-300" stroke="#888" stroke-width="1" opacity="1"/></g></g><path class="foreground" aria-hidden="true" d="" pointer-events="none" display="none"/></g></g><g class="mark-group role-title"><g transform="translate(-113.05859375000001,150)"><path class="background" aria-hidden="true" d="M0,0h0v0h0Z" pointer-events="none"/><g><g class="mark-text role-title-text" role="graphics-symbol" aria-roledescription="title" aria-label="Title text 'U Mass Boston'" pointer-events="none"><text text-anchor="middle" transform="translate(0,0) rotate(-90) translate(0,28)" font-family="sans-serif" font-size="36px" font-weight="bold" fill="#000" opacity="1">U Mass Boston</text></g></g><path class="foreground" aria-hidden="true" d="" pointer-events="none" display="none"/></g></g></g><path class="foreground" aria-hidden="true" d="" display="none"/></g><g transform="translate(-2,648)"><path class="background" aria-hidden="true" d="M0,0h0v300h0Z"/><g><g class="mark-group role-axis" role="graphics-symbol" aria-roledescription="axis" aria-label="Y-axis for a linear scale with values from $0 to $1,200,000"><g transform="translate(0.5,0.5)"><path class="background" aria-hidden="true" d="M0,0h0v0h0Z" pointer-events="none"/><g><g class="mark-rule role-axis-tick" pointer-events="none"><line transform="translate(0,300)" x2="-5" y2="0" stroke="#888" stroke-width="1" opacity="1"/><line transform="translate(0,250)" x2="-5" y2="0" stroke="#888" stroke-width="1" opacity="1"/><line transform="translate(0,200)" x2="-5" y2="0" stroke="#888" stroke-width="1" opacity="1"/><line transform="translate(0,150)" x2="-5" y2="0" stroke="#888" stroke-width="1" opacity="1"/><line transform="translate(0,100)" x2="-5" y2="0" stroke="#888" stroke-width="1" opacity="1"/><line transform="translate(0,50)" x2="-5" y2="0" stroke="#888" stroke-width="1" opacity="1"/><line transform="translate(0,0)" x2="-5" y2="0" stroke="#888" stroke-width="1" opacity="1"/></g><g class="mark-text role-axis-label" pointer-events="none"><text text-anchor="end" transform="translate(-7,304)" font-family="sans-serif" font-size="12px" fill="#000" opacity="1">$0</text><text text-anchor="end" transform="translate(-7,254)" font-family="sans-serif" font-size="12px" fill="#000" opacity="1">$200,000</text><text text-anchor="end" transform="translate(-7,204.00000000000003)" font-family="sans-serif" font-size="12px" fill="#000" opacity="1">$400,000</text><text text-anchor="end" transform="translate(-7,154)" font-family="sans-serif" font-size="12px" fill="#000" opacity="1">$600,000</text><text text-anchor="end" transform="translate(-7,104.00000000000001)" font-family="sans-serif" font-size="12px" fill="#000" opacity="1">$800,000</text><text text-anchor="end" transform="translate(-7,53.999999999999986)" font-family="sans-serif" font-size="12px" fill="#000" opacity="1">$1,000,000</text><text text-anchor="end" transform="translate(-7,4)" font-family="sans-serif" font-size="12px" fill="#000" opacity="1">$1,200,000</text></g><g class="mark-rule role-axis-domain" pointer-events="none"><line transform="translate(0,300)" x2="0" y2="-300" stroke="#888" stroke-width="1" opacity="1"/></g></g><path class="foreground" aria-hidden="true" d="" pointer-events="none" display="none"/></g></g><g class="mark-group role-title"><g transform="translate(-113.05859375000001,150)"><path class="background" aria-hidden="true" d="M0,0h0v0h0Z" pointer-events="none"/><g><g class="mark-text role-title-text" role="graphics-symbol" aria-roledescription="title" aria-label="Title text 'U Mass Dartmouth'" pointer-events="none"><text text-anchor="middle" transform="translate(0,0) rotate(-90) translate(0,28)" font-family="sans-serif" font-size="36px" font-weight="bold" fill="#000" opacity="1">U Mass Dartmouth</text></g></g><path class="foreground" aria-hidden="true" d="" pointer-events="none" display="none"/></g></g></g><path class="foreground" aria-hidden="true" d="" display="none"/></g><g transform="translate(-2,972)"><path class="background" aria-hidden="true" d="M0,0h0v300h0Z"/><g><g class="mark-group role-axis" role="graphics-symbol" aria-roledescription="axis" aria-label="Y-axis for a linear scale with values from $0 to $1,200,000"><g transform="translate(0.5,0.5)"><path class="background" aria-hidden="true" d="M0,0h0v0h0Z" pointer-events="none"/><g><g class="mark-rule role-axis-tick" pointer-events="none"><line transform="translate(0,300)" x2="-5" y2="0" stroke="#888" stroke-width="1" opacity="1"/><line transform="translate(0,250)" x2="-5" y2="0" stroke="#888" stroke-width="1" opacity="1"/><line transform="translate(0,200)" x2="-5" y2="0" stroke="#888" stroke-width="1" opacity="1"/><line transform="translate(0,150)" x2="-5" y2="0" stroke="#888" stroke-width="1" opacity="1"/><line transform="translate(0,100)" x2="-5" y2="0" stroke="#888" stroke-width="1" opacity="1"/><line transform="translate(0,50)" x2="-5" y2="0" stroke="#888" stroke-width="1" opacity="1"/><line transform="translate(0,0)" x2="-5" y2="0" stroke="#888" stroke-width="1" opacity="1"/></g><g class="mark-text role-axis-label" pointer-events="none"><text text-anchor="end" transform="translate(-7,304)" font-family="sans-serif" font-size="12px" fill="#000" opacity="1">$0</text><text text-anchor="end" transform="translate(-7,254)" font-family="sans-serif" font-size="12px" fill="#000" opacity="1">$200,000</text><text text-anchor="end" transform="translate(-7,204.00000000000003)" font-family="sans-serif" font-size="12px" fill="#000" opacity="1">$400,000</text><text text-anchor="end" transform="translate(-7,154)" font-family="sans-serif" font-size="12px" fill="#000" opacity="1">$600,000</text><text text-anchor="end" transform="translate(-7,104.00000000000001)" font-family="sans-serif" font-size="12px" fill="#000" opacity="1">$800,000</text><text text-anchor="end" transform="translate(-7,53.999999999999986)" font-family="sans-serif" font-size="12px" fill="#000" opacity="1">$1,000,000</text><text text-anchor="end" transform="translate(-7,4)" font-family="sans-serif" font-size="12px" fill="#000" opacity="1">$1,200,000</text></g><g class="mark-rule role-axis-domain" pointer-events="none"><line transform="translate(0,300)" x2="0" y2="-300" stroke="#888" stroke-width="1" opacity="1"/></g></g><path class="foreground" aria-hidden="true" d="" pointer-events="none" display="none"/></g></g><g class="mark-group role-title"><g transform="translate(-113.05859375000001,150)"><path class="background" aria-hidden="true" d="M0,0h0v0h0Z" pointer-events="none"/><g><g class="mark-text role-title-text" role="graphics-symbol" aria-roledescription="title" aria-label="Title text 'U Mass Lowell'" pointer-events="none"><text text-anchor="middle" transform="translate(0,0) rotate(-90) translate(0,28)" font-family="sans-serif" font-size="36px" font-weight="bold" fill="#000" opacity="1">U Mass Lowell</text></g></g><path class="foreground" aria-hidden="true" d="" pointer-events="none" display="none"/></g></g></g><path class="foreground" aria-hidden="true" d="" display="none"/></g><g transform="translate(-2,1296)"><path class="background" aria-hidden="true" d="M0,0h0v300h0Z"/><g><g class="mark-group role-axis" role="graphics-symbol" aria-roledescription="axis" aria-label="Y-axis for a linear scale with values from $0 to $1,200,000"><g transform="translate(0.5,0.5)"><path class="background" aria-hidden="true" d="M0,0h0v0h0Z" pointer-events="none"/><g><g class="mark-rule role-axis-tick" pointer-events="none"><line transform="translate(0,300)" x2="-5" y2="0" stroke="#888" stroke-width="1" opacity="1"/><line transform="translate(0,250)" x2="-5" y2="0" stroke="#888" stroke-width="1" opacity="1"/><line transform="translate(0,200)" x2="-5" y2="0" stroke="#888" stroke-width="1" opacity="1"/><line transform="translate(0,150)" x2="-5" y2="0" stroke="#888" stroke-width="1" opacity="1"/><line transform="translate(0,100)" x2="-5" y2="0" stroke="#888" stroke-width="1" opacity="1"/><line transform="translate(0,50)" x2="-5" y2="0" stroke="#888" stroke-width="1" opacity="1"/><line transform="translate(0,0)" x2="-5" y2="0" stroke="#888" stroke-width="1" opacity="1"/></g><g class="mark-text role-axis-label" pointer-events="none"><text text-anchor="end" transform="translate(-7,304)" font-family="sans-serif" font-size="12px" fill="#000" opacity="1">$0</text><text text-anchor="end" transform="translate(-7,254)" font-family="sans-serif" font-size="12px" fill="#000" opacity="1">$200,000</text><text text-anchor="end" transform="translate(-7,204.00000000000003)" font-family="sans-serif" font-size="12px" fill="#000" opacity="1">$400,000</text><text text-anchor="end" transform="translate(-7,154)" font-family="sans-serif" font-size="12px" fill="#000" opacity="1">$600,000</text><text text-anchor="end" transform="translate(-7,104.00000000000001)" font-family="sans-serif" font-size="12px" fill="#000" opacity="1">$800,000</text><text text-anchor="end" transform="translate(-7,53.999999999999986)" font-family="sans-serif" font-size="12px" fill="#000" opacity="1">$1,000,000</text><text text-anchor="end" transform="translate(-7,4)" font-family="sans-serif" font-size="12px" fill="#000" opacity="1">$1,200,000</text></g><g class="mark-rule role-axis-domain" pointer-events="none"><line transform="translate(0,300)" x2="0" y2="-300" stroke="#888" stroke-width="1" opacity="1"/></g></g><path class="foreground" aria-hidden="true" d="" pointer-events="none" display="none"/></g></g><g class="mark-group role-title"><g transform="translate(-113.05859375000001,150)"><path class="background" aria-hidden="true" d="M0,0h0v0h0Z" pointer-events="none"/><g><g class="mark-text role-title-text" role="graphics-symbol" aria-roledescription="title" aria-label="Title text 'U Mass Worcester'" pointer-events="none"><text text-anchor="middle" transform="translate(0,0) rotate(-90) translate(0,28)" font-family="sans-serif" font-size="36px" font-weight="bold" fill="#000" opacity="1">U Mass Worcester</text></g></g><path class="foreground" aria-hidden="true" d="" pointer-events="none" display="none"/></g></g></g><path class="foreground" aria-hidden="true" d="" display="none"/></g></g><g class="mark-group role-column-header column_header" role="graphics-object" aria-roledescription="group mark container"><g transform="translate(0,-2)"><path class="background" aria-hidden="true" d="M0,0h600v0h-600Z"/><g><g class="mark-group role-title"><g transform="translate(300,-46)"><path class="background" aria-hidden="true" d="M0,0h0v0h0Z" pointer-events="none"/><g><g class="mark-text role-title-text" role="graphics-symbol" aria-roledescription="title" aria-label="Title text 'Coach'" pointer-events="none"><text text-anchor="middle" transform="translate(0,28)" font-family="sans-serif" font-size="36px" font-weight="bold" fill="#000" opacity="1">Coach</text></g></g><path class="foreground" aria-hidden="true" d="" pointer-events="none" display="none"/></g></g></g><path class="foreground" aria-hidden="true" d="" display="none"/></g><g transform="translate(624,-2)"><path class="background" aria-hidden="true" d="M0,0h600v0h-600Z"/><g><g class="mark-group role-title"><g transform="translate(300,-46)"><path class="background" aria-hidden="true" d="M0,0h0v0h0Z" pointer-events="none"/><g><g class="mark-text role-title-text" role="graphics-symbol" aria-roledescription="title" aria-label="Title text 'Faculty'" pointer-events="none"><text text-anchor="middle" transform="translate(0,28)" font-family="sans-serif" font-size="36px" font-weight="bold" fill="#000" opacity="1">Faculty</text></g></g><path class="foreground" aria-hidden="true" d="" pointer-events="none" display="none"/></g></g></g><path class="foreground" aria-hidden="true" d="" display="none"/></g></g><g class="mark-group role-column-footer column_footer" role="graphics-object" aria-roledescription="group mark container"><g transform="translate(0,1598)"><path class="background" aria-hidden="true" d="M0,0h600v0h-600Z"/><g><g class="mark-group role-axis" role="graphics-symbol" aria-roledescription="axis" aria-label="X-axis titled 'Year' for a discrete scale with 15 values: 2010, 2011, 2012, 2013, 2014, ending with 2024"><g transform="translate(0.5,0.5)"><path class="background" aria-hidden="true" d="M0,0h0v0h0Z" pointer-events="none"/><g><g class="mark-rule role-axis-tick" pointer-events="none"><line transform="translate(20,0)" x2="0" y2="5" stroke="#888" stroke-width="1" opacity="1"/><line transform="translate(60,0)" x2="0" y2="5" stroke="#888" stroke-width="1" opacity="1"/><line transform="translate(100,0)" x2="0" y2="5" stroke="#888" stroke-width="1" opacity="1"/><line transform="translate(140,0)" x2="0" y2="5" stroke="#888" stroke-width="1" opacity="1"/><line transform="translate(180,0)" x2="0" y2="5" stroke="#888" stroke-width="1" opacity="1"/><line transform="translate(220,0)" x2="0" y2="5" stroke="#888" stroke-width="1" opacity="1"/><line transform="translate(260,0)" x2="0" y2="5" stroke="#888" stroke-width="1" opacity="1"/><line transform="translate(300,0)" x2="0" y2="5" stroke="#888" stroke-width="1" opacity="1"/><line transform="translate(340,0)" x2="0" y2="5" stroke="#888" stroke-width="1" opacity="1"/><line transform="translate(380,0)" x2="0" y2="5" stroke="#888" stroke-width="1" opacity="1"/><line transform="translate(420,0)" x2="0" y2="5" stroke="#888" stroke-width="1" opacity="1"/><line transform="translate(460,0)" x2="0" y2="5" stroke="#888" stroke-width="1" opacity="1"/><line transform="translate(500,0)" x2="0" y2="5" stroke="#888" stroke-width="1" opacity="1"/><line transform="translate(540,0)" x2="0" y2="5" stroke="#888" stroke-width="1" opacity="1"/><line transform="translate(580,0)" x2="0" y2="5" stroke="#888" stroke-width="1" opacity="1"/></g><g class="mark-text role-axis-label" pointer-events="none"><text text-anchor="middle" transform="translate(20,16)" font-family="sans-serif" font-size="12px" fill="#000" opacity="1">2010</text><text text-anchor="middle" transform="translate(60,16)" font-family="sans-serif" font-size="12px" fill="#000" opacity="1">2011</text><text text-anchor="middle" transform="translate(100,16)" font-family="sans-serif" font-size="12px" fill="#000" opacity="1">2012</text><text text-anchor="middle" transform="translate(140,16)" font-family="sans-serif" font-size="12px" fill="#000" opacity="1">2013</text><text text-anchor="middle" transform="translate(180,16)" font-family="sans-serif" font-size="12px" fill="#000" opacity="1">2014</text><text text-anchor="middle" transform="translate(220,16)" font-family="sans-serif" font-size="12px" fill="#000" opacity="1">2015</text><text text-anchor="middle" transform="translate(260,16)" font-family="sans-serif" font-size="12px" fill="#000" opacity="1">2016</text><text text-anchor="middle" transform="translate(300,16)" font-family="sans-serif" font-size="12px" fill="#000" opacity="1">2017</text><text text-anchor="middle" transform="translate(340,16)" font-family="sans-serif" font-size="12px" fill="#000" opacity="1">2018</text><text text-anchor="middle" transform="translate(380,16)" font-family="sans-serif" font-size="12px" fill="#000" opacity="1">2019</text><text text-anchor="middle" transform="translate(420,16)" font-family="sans-serif" font-size="12px" fill="#000" opacity="1">2020</text><text text-anchor="middle" transform="translate(460,16)" font-family="sans-serif" font-size="12px" fill="#000" opacity="1">2021</text><text text-anchor="middle" transform="translate(500,16)" font-family="sans-serif" font-size="12px" fill="#000" opacity="1">2022</text><text text-anchor="middle" transform="translate(540,16)" font-family="sans-serif" font-size="12px" fill="#000" opacity="1">2023</text><text text-anchor="middle" transform="translate(580,16)" font-family="sans-serif" font-size="12px" fill="#000" opacity="1">2024</text></g><g class="mark-rule role-axis-domain" pointer-events="none"><line transform="translate(0,0)" x2="600" y2="0" stroke="#888" stroke-width="1" opacity="1"/></g><g class="mark-text role-axis-title" pointer-events="none"><text text-anchor="middle" transform="translate(300,36)" font-family="sans-serif" font-size="18px" font-weight="bold" fill="#000" opacity="1">Year</text></g></g><path class="foreground" aria-hidden="true" d="" pointer-events="none" display="none"/></g></g></g><path class="foreground" aria-hidden="true" d="" display="none"/></g><g transform="translate(624,1598)"><path class="background" aria-hidden="true" d="M0,0h600v0h-600Z"/><g><g class="mark-group role-axis" role="graphics-symbol" aria-roledescription="axis" aria-label="X-axis titled 'Year' for a discrete scale with 15 values: 2010, 2011, 2012, 2013, 2014, ending with 2024"><g transform="translate(0.5,0.5)"><path class="background" aria-hidden="true" d="M0,0h0v0h0Z" pointer-events="none"/><g><g class="mark-rule role-axis-tick" pointer-events="none"><line transform="translate(20,0)" x2="0" y2="5" stroke="#888" stroke-width="1" opacity="1"/><line transform="translate(60,0)" x2="0" y2="5" stroke="#888" stroke-width="1" opacity="1"/><line transform="translate(100,0)" x2="0" y2="5" stroke="#888" stroke-width="1" opacity="1"/><line transform="translate(140,0)" x2="0" y2="5" stroke="#888" stroke-width="1" opacity="1"/><line transform="translate(180,0)" x2="0" y2="5" stroke="#888" stroke-width="1" opacity="1"/><line transform="translate(220,0)" x2="0" y2="5" stroke="#888" stroke-width="1" opacity="1"/><line transform="translate(260,0)" x2="0" y2="5" stroke="#888" stroke-width="1" opacity="1"/><line transform="translate(300,0)" x2="0" y2="5" stroke="#888" stroke-width="1" opacity="1"/><line transform="translate(340,0)" x2="0" y2="5" stroke="#888" stroke-width="1" opacity="1"/><line transform="translate(380,0)" x2="0" y2="5" stroke="#888" stroke-width="1" opacity="1"/><line transform="translate(420,0)" x2="0" y2="5" stroke="#888" stroke-width="1" opacity="1"/><line transform="translate(460,0)" x2="0" y2="5" stroke="#888" stroke-width="1" opacity="1"/><line transform="translate(500,0)" x2="0" y2="5" stroke="#888" stroke-width="1" opacity="1"/><line transform="translate(540,0)" x2="0" y2="5" stroke="#888" stroke-width="1" opacity="1"/><line transform="translate(580,0)" x2="0" y2="5" stroke="#888" stroke-width="1" opacity="1"/></g><g class="mark-text role-axis-label" pointer-events="none"><text text-anchor="middle" transform="translate(20,16)" font-family="sans-serif" font-size="12px" fill="#000" opacity="1">2010</text><text text-anchor="middle" transform="translate(60,16)" font-family="sans-serif" font-size="12px" fill="#000" opacity="1">2011</text><text text-anchor="middle" transform="translate(100,16)" font-family="sans-serif" font-size="12px" fill="#000" opacity="1">2012</text><text text-anchor="middle" transform="translate(140,16)" font-family="sans-serif" font-size="12px" fill="#000" opacity="1">2013</text><text text-anchor="middle" transform="translate(180,16)" font-family="sans-serif" font-size="12px" fill="#000" opacity="1">2014</text><text text-anchor="middle" transform="translate(220,16)" font-family="sans-serif" font-size="12px" fill="#000" opacity="1">2015</text><text text-anchor="middle" transform="translate(260,16)" font-family="sans-serif" font-size="12px" fill="#000" opacity="1">2016</text><text text-anchor="middle" transform="translate(300,16)" font-family="sans-serif" font-size="12px" fill="#000" opacity="1">2017</text><text text-anchor="middle" transform="translate(340,16)" font-family="sans-serif" font-size="12px" fill="#000" opacity="1">2018</text><text text-anchor="middle" transform="translate(380,16)" font-family="sans-serif" font-size="12px" fill="#000" opacity="1">2019</text><text text-anchor="middle" transform="translate(420,16)" font-family="sans-serif" font-size="12px" fill="#000" opacity="1">2020</text><text text-anchor="middle" transform="translate(460,16)" font-family="sans-serif" font-size="12px" fill="#000" opacity="1">2021</text><text text-anchor="middle" transform="translate(500,16)" font-family="sans-serif" font-size="12px" fill="#000" opacity="1">2022</text><text text-anchor="middle" transform="translate(540,16)" font-family="sans-serif" font-size="12px" fill="#000" opacity="1">2023</text><text text-anchor="middle" transform="translate(580,16)" font-family="sans-serif" font-size="12px" fill="#000" opacity="1">2024</text></g><g class="mark-rule role-axis-domain" pointer-events="none"><line transform="translate(0,0)" x2="600" y2="0" stroke="#888" stroke-width="1" opacity="1"/></g><g class="mark-text role-axis-title" pointer-events="none"><text text-anchor="middle" transform="translate(300,36)" font-family="sans-serif" font-size="18px" font-weight="bold" fill="#000" opacity="1">Year</text></g></g><path class="foreground" aria-hidden="true" d="" pointer-events="none" display="none"/></g></g></g><path class="foreground" aria-hidden="true" d="" display="none"/></g></g><g class="mark-group role-scope cell" role="graphics-object" aria-roledescription="group mark container"><g transform="translate(0,0)"><path class="background" aria-hidden="true" d="M0,0h600v300h-600Z" fill="#f8ead8" stroke="black" stroke-width="2"/><g><g class="mark-group role-scope child_pathgroup" role="graphics-object" aria-roledescription="group mark container"><g transform="translate(0,0)"><path class="background" aria-hidden="true" d="M0,0h600v300h-600Z"/><g><g class="mark-line role-mark child_marks" role="graphics-object" aria-roledescription="line mark container"><path aria-label="Job: Coach; Year: 2010; Max of ANNUAL_RATE: $235,398" role="graphics-symbol" aria-roledescription="line mark" d="M20,241.15L60,238.208L100,234.219L140,231.896L180,228.521L220,235.293L260,225L300,222.75L340,200L380,198L420,207.969L460,125L500,45L540,34.8L580,24.192" stroke="orange" stroke-width="3"/></g></g><path class="foreground" aria-hidden="true" d="" display="none"/></g></g></g><path class="foreground" aria-hidden="true" d="" display="none"/></g><g transform="translate(624,0)"><path class="background" aria-hidden="true" d="M0,0h600v300h-600Z" fill="#f8ead8" stroke="black" stroke-width="2"/><g><g class="mark-group role-scope child_pathgroup" role="graphics-object" aria-roledescription="group mark container"><g transform="translate(0,0)"><path class="background" aria-hidden="true" d="M0,0h600v300h-600Z"/><g><g class="mark-line role-mark child_marks" role="graphics-object" aria-roledescription="line mark container"><path aria-label="Job: Faculty; Year: 2010; Max of ANNUAL_RATE: $258,825" role="graphics-symbol" aria-roledescription="line mark" d="M20,235.294L60,246.25L100,238.877L140,237.496L180,231.425L220,229.981L260,228.155L300,226.538L340,216.142L380,208.528L420,210.172L460,210.172L500,207.927L540,205.1L580,201.304" stroke="blue" stroke-width="3"/></g></g><path class="foreground" aria-hidden="true" d="" display="none"/></g></g></g><path class="foreground" aria-hidden="true" d="" display="none"/></g><g transform="translate(0,324)"><path class="background" aria-hidden="true" d="M0,0h600v300h-600Z" fill="#f8ead8" stroke="black" stroke-width="2"/><g><g class="mark-group role-scope child_pathgroup" role="graphics-object" aria-roledescription="group mark container"><g transform="translate(0,0)"><path class="background" aria-hidden="true" d="M0,0h600v300h-600Z"/><g><g class="mark-line role-mark child_marks" role="graphics-object" aria-roledescription="line mark container"><path aria-label="Job: Coach; Year: 2010; Max of ANNUAL_RATE: $59,073" role="graphics-symbol" aria-roledescription="line mark" d="M20,285.232L60,284.715L100,283.912L140,283.344L180,283.053L220,282.774L260,282.166L300,281.854L340,281.121L380,280.36L420,279.859L460,279.859L500,279.355L540,277.007L580,276.087" stroke="orange" stroke-width="3"/></g></g><path class="foreground" aria-hidden="true" d="" display="none"/></g></g></g><path class="foreground" aria-hidden="true" d="" display="none"/></g><g transform="translate(624,324)"><path class="background" aria-hidden="true" d="M0,0h600v300h-600Z" fill="#f8ead8" stroke="black" stroke-width="2"/><g><g class="mark-group role-scope child_pathgroup" role="graphics-object" aria-roledescription="group mark container"><g transform="translate(0,0)"><path class="background" aria-hidden="true" d="M0,0h600v300h-600Z"/><g><g class="mark-line role-mark child_marks" role="graphics-object" aria-roledescription="line mark container"><path aria-label="Job: Faculty; Year: 2010; Max of ANNUAL_RATE: $176,603" role="graphics-symbol" aria-roledescription="line mark" d="M20,255.849L60,250.201L100,244.704L140,242.752L180,240.73L220,236.365L260,236.471L300,225.558L340,224.069L380,232.748L420,237.576L460,237.576L500,233.43L540,220.7L580,227.998" stroke="blue" stroke-width="3"/></g></g><path class="foreground" aria-hidden="true" d="" display="none"/></g></g></g><path class="foreground" aria-hidden="true" d="" display="none"/></g><g transform="translate(0,648)"><path class="background" aria-hidden="true" d="M0,0h600v300h-600Z" fill="#f8ead8" stroke="black" stroke-width="2"/><g><g class="mark-group role-scope child_pathgroup" role="graphics-object" aria-roledescription="group mark container"><g transform="translate(0,0)"><path class="background" aria-hidden="true" d="M0,0h600v300h-600Z"/><g><g class="mark-line role-mark child_marks" role="graphics-object" aria-roledescription="line mark container"><path aria-label="Job: Coach; Year: 2010; Max of ANNUAL_RATE: $73,454" role="graphics-symbol" aria-roledescription="line mark" d="M20,281.637L60,280.991L100,279.981L140,279.326L180,277.469L220,276.975L260,279.082L300,278.82L340,278.395L380,281.025L420,281.523L460,281.025L500,279.765L540,278.628L580,277.773" stroke="orange" stroke-width="3"/></g></g><path class="foreground" aria-hidden="true" d="" display="none"/></g></g></g><path class="foreground" aria-hidden="true" d="" display="none"/></g><g transform="translate(624,648)"><path class="background" aria-hidden="true" d="M0,0h600v300h-600Z" fill="#f8ead8" stroke="black" stroke-width="2"/><g><g class="mark-group role-scope child_pathgroup" role="graphics-object" aria-roledescription="group mark container"><g transform="translate(0,0)"><path class="background" aria-hidden="true" d="M0,0h600v300h-600Z"/><g><g class="mark-line role-mark child_marks" role="graphics-object" aria-roledescription="line mark container"><path aria-label="Job: Faculty; Year: 2010; Max of ANNUAL_RATE: $243,750" role="graphics-symbol" aria-roledescription="line mark" d="M20,239.063L60,248.295L100,245.181L140,245.975L180,246.285L220,253.916L260,252.617L300,240L340,240L380,251.822L420,239.036L460,234.834L500,230.507L540,227.727L580,224.836" stroke="blue" stroke-width="3"/></g></g><path class="foreground" aria-hidden="true" d="" display="none"/></g></g></g><path class="foreground" aria-hidden="true" d="" display="none"/></g><g transform="translate(0,972)"><path class="background" aria-hidden="true" d="M0,0h600v300h-600Z" fill="#f8ead8" stroke="black" stroke-width="2"/><g><g class="mark-group role-scope child_pathgroup" role="graphics-object" aria-roledescription="group mark container"><g transform="translate(0,0)"><path class="background" aria-hidden="true" d="M0,0h600v300h-600Z"/><g><g class="mark-line role-mark child_marks" role="graphics-object" aria-roledescription="line mark container"><path aria-label="Job: Coach; Year: 2010; Max of ANNUAL_RATE: $172,550" role="graphics-symbol" aria-roledescription="line mark" d="M20,256.862L60,255.266L100,248.125L140,233.562L180,224.687L220,219.551L260,214.173L300,190L340,183.75L380,174.75L420,168.5L460,190L500,190L540,190L580,190" stroke="orange" stroke-width="3"/></g></g><path class="foreground" aria-hidden="true" d="" display="none"/></g></g></g><path class="foreground" aria-hidden="true" d="" display="none"/></g><g transform="translate(624,972)"><path class="background" aria-hidden="true" d="M0,0h600v300h-600Z" fill="#f8ead8" stroke="black" stroke-width="2"/><g><g class="mark-group role-scope child_pathgroup" role="graphics-object" aria-roledescription="group mark container"><g transform="translate(0,0)"><path class="background" aria-hidden="true" d="M0,0h600v300h-600Z"/><g><g class="mark-line role-mark child_marks" role="graphics-object" aria-roledescription="line mark container"><path aria-label="Job: Faculty; Year: 2010; Max of ANNUAL_RATE: $182,700" role="graphics-symbol" aria-roledescription="line mark" d="M20,254.325L60,256.659L100,254.553L140,252.868L180,245.096L220,249.677L260,244.037L300,243.058L340,228.8L380,227.892L420,217.777L460,217.777L500,175L540,175L580,204.961" stroke="blue" stroke-width="3"/></g></g><path class="foreground" aria-hidden="true" d="" display="none"/></g></g></g><path class="foreground" aria-hidden="true" d="" display="none"/></g><g transform="translate(0,1296)"><path class="background" aria-hidden="true" d="M0,0h600v300h-600Z" fill="#f8ead8" stroke="black" stroke-width="2"/><g><g class="mark-group role-scope child_pathgroup" role="graphics-object" aria-roledescription="group mark container"><g transform="translate(0,0)"><path class="background" aria-hidden="true" d="M0,0h600v300h-600Z"/><g><g class="mark-line role-mark child_marks" role="graphics-object" aria-roledescription="line mark container"><path aria-label="Job: Coach; Year: 2021; Max of ANNUAL_RATE: $73,500" role="graphics-symbol" aria-roledescription="line mark" d="M460,281.625L500,280L540,279.5L580,280.75" stroke="orange" stroke-width="3"/></g></g><path class="foreground" aria-hidden="true" d="" display="none"/></g></g></g><path class="foreground" aria-hidden="true" d="" display="none"/></g><g transform="translate(624,1296)"><path class="background" aria-hidden="true" d="M0,0h600v300h-600Z" fill="#f8ead8" stroke="black" stroke-width="2"/><g><g class="mark-group role-scope child_pathgroup" role="graphics-object" aria-roledescription="group mark container"><g transform="translate(0,0)"><path class="background" aria-hidden="true" d="M0,0h600v300h-600Z"/><g><g class="mark-line role-mark child_marks" role="graphics-object" aria-roledescription="line mark container"><path aria-label="Job: Faculty; Year: 2010; Max of ANNUAL_RATE: $375,125" role="graphics-symbol" aria-roledescription="line mark" d="M20,206.219L60,209.72L100,208.817L140,206.993L180,205.133L220,198.136L260,196.099L300,194.021L340,191.901L380,198L420,201.179L460,193.75L500,187.335L540,166.642L580,166.642" stroke="blue" stroke-width="3"/></g></g><path class="foreground" aria-hidden="true" d="" display="none"/></g></g></g><path class="foreground" aria-hidden="true" d="" display="none"/></g></g><g class="mark-group role-legend" role="graphics-symbol" aria-roledescription="legend" aria-label="Symbol legend titled 'Job' for stroke color with 2 values: Coach, Faculty"><g transform="translate(1244,0)"><path class="background" aria-hidden="true" d="M0,0h72v69h-72Z" pointer-events="none"/><g><g class="mark-group role-legend-entry"><g transform="translate(0,35)"><path class="background" aria-hidden="true" d="M0,0h0v0h0Z" pointer-events="none"/><g><g class="mark-group role-scope" role="graphics-object" aria-roledescription="group mark container"><g transform="translate(0,0)"><path class="background" aria-hidden="true" d="M0,0h71.5703125v16h-71.5703125Z" pointer-events="none" opacity="1"/><g><g class="mark-symbol role-legend-symbol" pointer-events="none"><path transform="translate(8,8)" d="M-5,0L5,0" stroke="orange" stroke-width="1.5" opacity="1"/></g><g class="mark-text role-legend-label" pointer-events="none"><text text-anchor="start" transform="translate(20,13)" font-family="sans-serif" font-size="16px" fill="#000" opacity="1">Coach</text></g></g><path class="foreground" aria-hidden="true" d="" pointer-events="none" display="none"/></g><g transform="translate(0,18)"><path class="background" aria-hidden="true" d="M0,0h71.5703125v16h-71.5703125Z" pointer-events="none" opacity="1"/><g><g class="mark-symbol role-legend-symbol" pointer-events="none"><path transform="translate(8,8)" d="M-5,0L5,0" stroke="blue" stroke-width="1.5" opacity="1"/></g><g class="mark-text role-legend-label" pointer-events="none"><text text-anchor="start" transform="translate(20,13)" font-family="sans-serif" font-size="16px" fill="#000" opacity="1">Faculty</text></g></g><path class="foreground" aria-hidden="true" d="" pointer-events="none" display="none"/></g></g></g><path class="foreground" aria-hidden="true" d="" pointer-events="none" display="none"/></g></g><g class="mark-text role-legend-title" pointer-events="none"><text text-anchor="start" transform="translate(0,24)" font-family="sans-serif" font-size="30px" font-weight="bold" fill="#000" opacity="1">Job</text></g></g><path class="foreground" aria-hidden="true" d="" pointer-events="none" display="none"/></g></g></g><path class="foreground" aria-hidden="true" d="" display="none"/></g></g></g></svg>