<?xml version="1.0" encoding="UTF-8" standalone="no"?>
<svg
   xmlns:dc="http://purl.org/dc/elements/1.1/"
   xmlns:cc="http://creativecommons.org/ns#"
   xmlns:rdf="http://www.w3.org/1999/02/22-rdf-syntax-ns#"
   xmlns:svg="http://www.w3.org/2000/svg"
   xmlns="http://www.w3.org/2000/svg"
   xmlns:xlink="http://www.w3.org/1999/xlink"
   xmlns:sodipodi="http://sodipodi.sourceforge.net/DTD/sodipodi-0.dtd"
   xmlns:inkscape="http://www.inkscape.org/namespaces/inkscape"
   version="1.1"
   id="Layer_1"
   x="0px"
   y="0px"
   viewBox="0 0 899.99103 451.42001"
   xml:space="preserve"
   sodipodi:docname="umass-dartmouth_logo.svg"
   width="899.99103"
   height="451.42001"
   inkscape:version="1.0.1 (3bc2e813f5, 2020-09-07)"><metadata
   id="metadata23"><rdf:RDF><cc:Work
       rdf:about=""><dc:format>image/svg+xml</dc:format><dc:type
         rdf:resource="http://purl.org/dc/dcmitype/StillImage" /></cc:Work></rdf:RDF></metadata><defs
   id="defs21" /><sodipodi:namedview
   pagecolor="#ffffff"
   bordercolor="#666666"
   borderopacity="1"
   objecttolerance="10"
   gridtolerance="10"
   guidetolerance="10"
   inkscape:pageopacity="0"
   inkscape:pageshadow="2"
   inkscape:window-width="747"
   inkscape:window-height="480"
   id="namedview19"
   showgrid="false"
   inkscape:zoom="0.25408609"
   inkscape:cx="449.999"
   inkscape:cy="225.70999"
   inkscape:window-x="0"
   inkscape:window-y="27"
   inkscape:window-maximized="0"
   inkscape:current-layer="Layer_1" />
<g
   id="g16"
   transform="translate(-50.001,-274.29001)">
	<g
   id="g14">
		<defs
   id="defs3">
			<rect
   id="SVGID_1_"
   x="50"
   y="274.29001"
   width="900"
   height="451.42001" />
		</defs>
		<clipPath
   id="SVGID_2_">
			<use
   xlink:href="#SVGID_1_"
   overflow="visible"
   id="use5"
   x="0"
   y="0"
   width="100%"
   height="100%" />
		</clipPath>
		<path
   clip-path="url(#SVGID_2_)"
   fill="#071844"
   d="m 876.079,360.16 c -48.993,-20.409 -92.702,-6.737 -92.702,-6.737 0,0 -29.368,-33.788 -89.069,-36.278 0,0 -81.038,-9.413 -97.673,63.362 -11.3,-62.684 -88.504,-95.182 -88.504,-95.182 -32.502,10.14 -59.002,41.319 -59.002,41.319 0,0 -20.269,24.47 -30.925,53.862 -0.492,-43.548 2.012,-77.439 2.012,-77.439 l -67.526,12.673 -29.152,48.374 c 0,0 -21.42,-24.643 -25.024,-28.063 -7.166,-6.794 -14.958,-7.835 -14.958,-7.835 -22.875,-4.68 -39.501,6.237 -39.501,6.237 -34.376,4.419 -67.501,13.849 -67.501,13.849 -7.154,68.728 1.001,113.816 1.001,113.816 -27.5,-24.856 -12.503,-96.252 -12.503,-96.252 l -15.075,-10.294 c -36.046,10.933 -79.815,38.405 -89.715,77.634 l 24.927,7.687 c 0,0 4.325,146.318 127.87,164.388 l 11.868,24.588 -31.148,81 c 0,0 270.969,-103.109 607.544,0.252 l -0.979,-2.329 -32.415,-78.395 13.841,-25.566 C 903.469,584.813 910.492,441.023 910.492,441.023 l 28.571,-7.8 c 0,0 -13.982,-52.641 -62.984,-73.063 M 608.976,481.826 c 4.601,-33.639 45.482,-34.31 45.482,-34.31 0,0 -0.947,10.838 -1.988,27.468 0,0 21.054,-1.563 34.31,-14.555 0,0 17.676,-16.993 -11.954,-23.222 -26.568,-5.601 -68.784,-14.575 -52.513,-55.793 0,0 0.867,-3.217 2.524,-6.675 1.025,-2.158 2.572,-5.229 3.377,-6.755 0.545,-1.05 2.431,-3.298 4.671,-5.981 2.336,-2.777 5.208,-5.192 5.208,-5.192 23.216,-20.8 57.265,-19.466 81.606,-14.384 l 4.515,1.041 c 28.415,7.271 52.852,23.213 63.583,40.369 0,0 -19.223,-4.51 -23.301,0.216 l -0.647,1.148 -0.821,2.104 c -9.304,26.074 -49.908,14.549 -49.908,14.549 0,0 4.672,-5.542 7.629,-18.018 0,0 -14.684,-7.094 -33.149,-2.345 -1.403,0.363 -2.84,0.794 -4.282,1.302 0,0 -1.841,0.624 -3.813,2.254 -4.552,3.775 -9.531,10.917 0.513,14.207 l 26.166,7.796 c 43.155,13.695 37.521,38.438 37.521,38.438 -10.486,94.565 -140.709,75.061 -140.709,75.061 0,0 2.832,-15.695 5.98,-38.723 M 436.952,394.17 c 3.35,-15.307 11.296,-33.812 14.63,-38.111 0,0 16.146,-30.835 53.142,-47.246 l 2.762,-1.188 2.588,1.254 c 36.991,16.408 54.462,47.057 54.462,47.057 2.809,2.458 13.272,26.26 14.992,38.301 0,0 11.078,48.167 12.814,127.527 0,0 -49.238,2.651 -60.648,-39.5 l -0.575,-0.131 c -15.475,-2.423 -47.254,-0.564 -47.254,-0.564 -11.411,42.153 -61.328,38.815 -61.328,38.815 5.373,-86.981 8.134,-97.559 14.415,-126.214 m -161.879,-51.712 46.268,53.816 37.449,-63.656 c 0,0 25.041,-6.12 41.679,-7.416 0,0 -0.887,12.723 -1.415,39.753 l -0.126,3.199 c 0,0 0.294,65.068 0.815,68.706 0.773,44.447 10.827,79.428 10.827,79.428 -39.254,6.234 -48.359,-28.741 -49.29,-34.261 -1.142,-4.452 -2.075,-8.393 -3.903,-18.916 -0.678,-3.877 -1.163,-7.709 -1.301,-9.365 l -10.356,13.13 -16.422,22.749 -15.288,-13.343 -16.425,-15.246 3.039,27.102 c -0.009,5.274 2.867,38.891 -44.094,44.895 0,0 -2.797,-46.99 -6.245,-74.607 -0.222,-1.341 -0.23,-2.205 -0.23,-2.205 -7.124,-55.945 -10.431,-72.121 -10.431,-72.121 -10.349,-0.986 -20.481,10.131 -20.481,10.131 -0.307,-6.497 1.535,-15.012 2.817,-16.89 12.728,-34.832 53.113,-34.883 53.113,-34.883 m -179.76,85.513 c -3.021,-5.098 -18.195,-0.986 -18.195,-0.986 7.007,-19.471 45.549,-45.538 70.8,-53.101 -1.681,12.897 -2.45,23.6 -2.45,23.6 0,0 -12.83,85.128 45.242,96.876 l -0.039,-0.453 c -13.738,-85.119 -4.894,-130.841 -4.894,-130.841 0,0 24.817,-6.482 40.961,-8.613 -8.459,9.584 -19.537,26.711 -14.803,47.357 l 15.045,8.983 c 1.389,29.83 5.803,72.251 17.075,129.262 0,0 -139.068,32.486 -148.742,-112.084 m 661.703,201.913 29.582,67.514 C 463.623,604.572 212.429,695.994 212.429,695.994 l 25.443,-67.214 -28.157,-56.782 c 0,0 262.021,-78.091 579.487,-0.362 z m 143.982,-203.68 -0.821,1.008 -0.693,1.02 c -14.993,24.88 -49.364,8.533 -52.017,7.496 0,0 5.729,-4.675 10.629,-16.678 0,0 -11.418,-7.256 -28.272,-7.019 -2.044,0.023 -3.717,0.51 -5.981,0.896 0,0 -3.195,0.669 -5.475,1.948 -4.8,2.69 -9.976,7.374 -0.443,12.036 l 23.681,10.982 c 39.509,20.281 30.403,44.717 30.403,44.717 -24.557,89.852 -149.183,49.901 -149.183,49.901 0,0 5.664,-16.563 12.356,-38.268 9.808,-31.704 48.543,-25.759 48.543,-25.759 0,0 -2.272,10.407 -6.47,26.392 0,0 22.046,2.488 36.882,-9.253 0,0 19.427,-10.818 -7.876,-21.479 -19.592,-7.643 -47.407,-18.429 -47.131,-41.012 19.159,-4.146 24.462,-19.588 24.462,-19.588 l 19.939,-13.624 c -1.46,-3.248 -4.623,-8.429 -7.685,-13.202 22.487,-9.897 49.332,-5.163 67.592,1.487 l 3.235,1.082 c 28.99,12.089 47.77,32.358 55.037,50.631 10e-4,0.002 -17.65,-8.208 -20.712,-3.714 m -615.06,160.975 -29.74,7.103 14.397,60.27 29.735,-7.103 7.895,-11.079 -10.23,-42.813 z m -3.069,50.153 -7.919,-33.147 8.713,-2.077 7.901,33.143 z m 35.604,-56.663 -2.676,63.292 15.629,-2.62 0.231,-8.86 11.604,-1.934 3.118,8.293 15.67,-2.627 -23.159,-58.953 z m 13.671,37.584 0.378,-16.239 5.714,15.237 z m 65.918,-17.178 6.068,-6.629 -1.754,-15.979 -11.182,-7.828 -30.391,3.331 6.753,61.61 15.853,-1.743 -2.606,-23.839 8.888,-0.979 2.616,23.838 15.856,-1.736 -2.75,-24.887 z m -18.794,-4.979 -1.085,-9.958 8.888,-0.979 1.102,9.966 z m 79.297,-30.08 -45.711,2.501 0.762,13.96 14.896,-0.806 2.611,47.913 15.918,-0.867 -2.617,-47.913 14.898,-0.813 z m 27.594,-0.3 -15.805,-0.063 -0.217,61.958 15.946,0.071 0.068,-19.956 9.354,20.753 9.547,-20.69 -0.078,19.965 15.939,0.055 0.236,-61.975 -15.798,-0.055 -9.709,21.084 z m 75.875,64.443 10.794,-8.309 2.675,-43.935 -9.682,-9.612 -20.271,-1.238 -10.779,8.356 -2.698,43.929 9.69,9.556 z m -11.67,-48.788 8.932,0.552 -2.083,34.01 -8.926,-0.552 z m 62.833,53.808 11.205,-7.732 6.012,-52.672 -15.837,-1.799 -5.46,47.748 -8.869,-1.02 5.445,-47.754 -15.844,-1.808 -6.015,52.671 9.187,10.054 z m 32.961,4.711 15.732,2.635 7.939,-47.313 14.707,2.462 2.32,-13.784 -45.134,-7.591 -2.32,13.792 14.709,2.486 z m 53.996,10.211 5.23,-23.396 8.728,1.955 -5.231,23.39 15.569,3.479 13.493,-60.498 -15.553,-3.465 -5.232,23.438 -8.728,-1.942 5.232,-23.444 -15.568,-3.479 -13.485,60.491 z M 529.5,451.082 c 0,0 -3.725,-30.406 -22.323,-42.682 0,0 -15.896,11.297 -21.093,42.145 0,0 22.946,-2.639 43.416,0.537 m -22.158,-25.679 c 8.713,5.736 9.406,17.347 9.406,17.347 -8.317,-0.912 -18.969,0.083 -18.969,0.083 1.929,-13.514 9.563,-17.43 9.563,-17.43"
   id="path8" />
		<path
   clip-path="url(#SVGID_2_)"
   fill="#4985b5"
   d="m 788.09,343.76 -1.666,-1.317 C 706.712,281.447 623.938,316.344 611.06,332.741 l -1.043,0.936 c -8.845,10.132 -12.734,18.974 -12.734,18.974 -20.982,-51.311 -89.048,-78.363 -89.048,-78.363 -53.661,18.046 -80.933,66.769 -80.933,66.769 l 2.368,-49.808 -82.652,15.885 -23.948,39.296 -18.981,-19.491 c 0,0 -21.838,-20.531 -67.316,-1.041 0,0 -47.025,8.158 -67.558,14.404 l -1.583,15.75 -14.554,-9.358 c 0,0 -84.502,16.059 -103.077,91.94 l 26.431,8.581 c 0,0 4.21,141.702 130.541,167.427 l 7.437,14.581 -36.373,95.629 c 0,0 155.742,-53.358 317.286,-50.044 176.023,3.606 287.962,37.442 322.192,50.911 l -38.46,-95.959 7.718,-14.929 c 0,0 113.312,-13.69 132.028,-166.342 l 31.191,-8.313 C 949.991,440.174 929.23,323.213 788.09,343.76 m 122.401,97.262 c 0,0 -7.022,143.79 -128.722,163.808 l -13.841,25.566 32.415,78.395 0.979,2.329 C 464.747,607.759 193.778,710.868 193.778,710.868 l 31.148,-81 -11.868,-24.588 C 89.514,587.211 85.188,440.893 85.188,440.893 l -24.927,-7.687 c 9.899,-39.229 53.669,-66.701 89.715,-77.634 l 15.075,10.294 c 0,0 -14.997,71.396 12.503,96.252 0,0 -8.155,-45.089 -1.001,-113.816 0,0 33.125,-9.43 67.501,-13.849 0,0 16.626,-10.917 39.501,-6.237 0,0 7.792,1.041 14.958,7.835 3.604,3.421 25.024,28.063 25.024,28.063 l 29.152,-48.374 67.525,-12.673 c 0,0 -2.504,33.892 -2.012,77.439 0,0 10.731,-28.898 30.664,-52.815 12.565,-15.088 33.614,-33.446 58.048,-41.92 l 1.215,-0.446 c 0,0 76.937,31.974 88.504,95.182 16.635,-72.775 97.673,-63.362 97.673,-63.362 59.701,2.49 89.069,36.278 89.069,36.278 0,0 43.709,-13.672 92.702,6.737 49.002,20.422 62.983,73.063 62.983,73.063 z M 507.342,425.403 c 0,0 -7.634,3.916 -9.563,17.43 0,0 10.651,-0.995 18.969,-0.083 0,0 -0.693,-11.61 -9.406,-17.347"
   id="path10" />
		<path
   clip-path="url(#SVGID_2_)"
   fill="#ffb515"
   d="m 333.492,616.722 2.972,-0.489 -2.813,-7.993 z m 216.572,-3.03 5.451,0.348 1.997,-30.318 -5.373,-0.354 z m -273.176,-8.221 7.186,29.63 5.638,-1.13 -7.118,-29.811 z m 103.105,-17.763 0.765,6.588 5.544,-0.614 -0.687,-6.59 z m 123.625,-42.461 c -160.519,-0.891 -281.757,31.216 -281.757,31.216 l 25.882,51.03 -21.321,55.479 c 0,0 32.487,-11.354 86.069,-20.958 106.301,-19.047 274.911,-29.007 458.655,22.631 l -25.873,-55.473 29.639,-53.403 C 673.743,552.025 585.903,545.696 503.618,545.247 m -201.696,103.718 -32.491,7.622 -15.248,-63.601 32.128,-7.654 13.357,7.133 10.836,44.363 z m 43.324,-8.318 -3.038,-8.065 -9.007,1.563 -0.171,8.743 -19.158,3.385 3.298,-67.142 22.615,-3.725 24.434,62.116 z m 45.655,-6.251 -2.773,-23.475 -5.364,0.435 2.675,23.744 -19.231,2.161 -7.184,-64.901 32.742,-3.552 12.313,8.664 1.898,17.771 -5.283,5.445 6.238,4.252 3.029,27.477 z m 58.137,-4.069 -19.314,0.875 -2.698,-47.652 -14.803,0.693 -1.128,-17.336 49.037,-2.769 0.954,17.241 -14.991,0.953 z m 73.566,-0.947 h -19.072 l 0.135,-14.884 -8.183,17.258 -8.065,-17.801 0.087,15.427 -18.891,-0.096 v -65.406 l 18.98,-0.08 8.228,18.962 8.41,-18.701 18.703,0.08 z m 52.236,-6.851 -12.032,9.531 -21.93,-1.467 -10.732,-10.493 2.936,-45.735 11.774,-9.089 21.841,1.451 10.644,10.398 z m 51.464,5.618 -12.647,8.933 -21.393,-2.414 -10.401,-11.175 6.503,-55.289 19.223,2.257 -5.193,47.572 5.287,0.773 5.444,-47.833 19.237,2.343 z m 37.167,16.39 -19.231,-3.212 7.883,-47.218 -14.723,-2.675 2.849,-17.068 48.867,8.049 -2.857,17.493 -14.992,-2.492 z m 62.478,13.344 -19.159,-4.341 5.2,-23.293 -5.278,-1.128 -5.114,22.961 -19.411,-3.906 14.551,-64.278 19.063,4.159 -5.199,23.554 5.199,1.137 5.288,-23.562 19.136,4.324 z M 220.117,406.697 211.93,401.809 c -3.618,-15.782 2.021,-29.521 8.656,-39.4 -13.762,1.714 -29.461,5.954 -29.461,5.954 0,0 -8.096,56.393 7.297,134.38 l 0.03,0.383 c -67.711,-4.229 -60.107,-93.182 -60.107,-93.182 0,0 0.114,-12.42 1.602,-23.692 -23.439,7.201 -42.396,22.067 -51.866,34.399 0,0 10.972,-3.322 13.616,1.13 3.471,139.666 134.475,113.208 134.475,113.208 -11.675,-56.533 -15.327,-99.391 -16.055,-128.292 m 642.233,-22.229 -3.109,-1.044 c -19.333,-5.963 -40.669,-9.734 -60.104,-1.444 1.839,3.021 3.457,5.882 4.402,7.942 l -19.954,13.63 c 0,0 -4.024,11.79 -17.795,17.55 -2.579,21.818 27.365,31.941 46.162,39.344 25.234,9.938 12.364,24.28 12.364,24.28 -15.513,22.065 -54.194,16.329 -54.194,16.329 4.024,-15.295 5.729,-25.729 5.729,-25.729 0,0 -27.287,-0.741 -34.042,19.539 -6.879,20.635 -10.731,33.433 -10.731,33.433 0,0 109.763,33.314 134.349,-46.051 0,0 9.154,-21.355 -28.271,-40.346 -3.402,-1.713 0,0 -21.329,-10.061 -15.118,-7.124 -8.111,-15.198 -2.753,-19.306 2.225,-1.703 5.577,-2.938 5.577,-2.938 3.165,-1.08 4.924,-1.535 8.032,-1.874 20.47,-2.272 38.501,9.576 38.501,9.576 -4.688,11.473 -8.76,16.068 -8.76,16.068 0,0 28.763,11.024 39.179,-7.634 l 1.088,-1.811 1.263,-1.958 c 2.944,-4.288 13.738,-0.231 13.738,-0.231 -9.953,-15.263 -25.766,-27.503 -49.342,-37.264 m -467.877,67.791 c 0,0 -0.009,-1.33 0,0 M 244.559,377.785 c 0,0 5.844,33.362 12.752,87.686 0,0 0.016,0.833 0.233,2.152 2.319,25.605 4.43,59.547 4.43,59.547 35.955,-9.256 32.732,-31.158 32.739,-36.279 -0.086,-6.383 -2.027,-19.876 -3.548,-36.79 -0.113,-1.673 -0.275,-3.625 -0.408,-5.235 l 24.418,20.785 13.224,12.245 9.813,-14.032 21.057,-26.06 c 0.133,1.593 0.288,2.975 0.888,6.747 2.591,16.542 4.54,22.89 5.334,26.967 0.895,5.361 7.357,37.267 37.626,35.42 0,0 -7.538,-33.054 -8.644,-58.679 -3.152,-57.035 -1.496,-87.919 -1.496,-87.919 l 1.034,-30.664 c -13.508,0.501 -31.813,5.736 -31.813,5.736 l -40.19,68.059 -49.562,-56.384 c 0,0 -25.953,-1.211 -42.22,23.384 -1.244,1.82 -2.924,4.455 -4.533,9.004 0,0 8.968,-8.266 18.866,-5.69 m 493.376,68.922 c 0,0 5.673,-23.084 -35.287,-36.013 -3.7,-1.169 -0.04,0.153 -23.207,-6.594 -17.273,-5.034 -11.26,-14.775 -6.281,-20.031 2.053,-2.153 3.915,-3.563 3.915,-3.563 2.255,-1.696 4.149,-2.528 6.242,-3.254 21.288,-7.394 43.539,3.934 43.539,3.934 -2.815,12.372 -6.153,17.688 -6.153,17.688 0,0 30.859,6.327 38.262,-14.244 l 0.813,-2.012 0.923,-2.181 c 2.272,-4.826 13.841,-2.53 13.841,-2.53 -12.594,-13.753 -30.593,-23.459 -56.009,-29.396 l -3.331,-0.524 c -26.623,-3.639 -58.471,-4.704 -78.449,20.725 0,0 -3.148,4.517 -4.206,6.561 -1.405,2.707 -3.574,7.201 -3.574,7.201 -17.849,37.65 26.907,44.874 51.337,51.155 27.696,7.134 16.531,22.438 16.531,22.438 -11.971,24.873 -51.045,25.629 -51.045,25.629 1.499,-16.107 2.019,-26.469 2.019,-26.469 0,0 -29.132,3.247 -32.571,24.848 -3.505,21.977 -5.256,35.535 -5.256,35.535 0,0 116.355,15.323 127.947,-68.903 m -260.391,28.889 c 0,0 26.848,-4.024 58.899,0.438 l 2.155,0.363 c 3.604,38.306 47.524,37.312 47.524,37.312 -3.739,-85.165 -14.186,-121.328 -14.186,-121.328 -2.629,-14.709 -11.072,-28.25 -11.868,-29.497 -0.428,-0.636 -17.581,-30.655 -51.669,-45.781 l -0.9,-0.355 -0.845,0.355 c -33.831,12.79 -52.366,47.847 -52.366,47.847 -3.217,3.811 -8.59,18.137 -10.116,24.254 0,0 -11.489,39.341 -15.241,124.506 0.001,-0.002 45.018,0.195 48.613,-38.114 m 29.861,-78.653 c 28.96,23.701 29.764,61.813 29.764,61.813 -32.55,-4.242 -58.849,-0.063 -58.849,-0.063 1.721,-40.428 30.008,-60.984 29.085,-61.75"
   id="path12" />
	</g>
</g>
</svg>
